<svg width="445" height="199" viewBox="0 0 445 199" fill="none" xmlns="http://www.w3.org/2000/svg">
<path fill-rule="evenodd" clip-rule="evenodd" d="M60.8504 77.1534C58.9466 76.1409 56.664 76.1409 54.7604 77.1534L4.28509 103.997L4.17129 103.937L4.08103 104.106L3.4399 104.447C1.32298 105.573 0 107.775 0 110.173V164.402C0 166.8 1.32297 169.002 3.4399 170.127L54.7604 197.421C56.664 198.434 58.9466 198.434 60.8504 197.421L112.171 170.127C114.288 169.002 115.611 166.8 115.611 164.402V110.173C115.611 107.775 114.288 105.573 112.171 104.447L60.8504 77.1534ZM107.829 163.623L63.7225 187.08L63.7198 139.223L107.829 115.708V163.623ZM7.78185 114.684V163.623L55.9408 189.235L55.9379 140.38L35.7773 129.622L27.9917 125.468L7.78185 114.684ZM104.014 108.923L58.7439 133.057L30.9472 118.224L12.5578 108.412L57.8053 84.3479L84.452 98.5194L104.014 108.923Z" fill="white"/>
<path fill-rule="evenodd" clip-rule="evenodd" d="M5.97314 111.669L28.8432 123.872L27.9918 125.468L7.78185 114.684V163.623L55.9408 189.235L55.9379 140.38L27.9918 125.468L28.8432 123.872L57.7466 139.295L57.7496 192.245L5.97314 164.709V111.669ZM109.637 164.709L61.914 190.09L61.911 138.137L109.637 112.694V164.709ZM58.7435 135.106L8.71078 108.409L57.8053 82.2993L107.862 108.921L58.7435 135.106ZM107.829 163.623L63.7225 187.08L63.7198 139.223L107.829 115.708V163.623ZM104.014 108.923L57.8053 84.3479L12.5578 108.412L58.7439 133.057L104.014 108.923Z" fill="black"/>
<path fill-rule="evenodd" clip-rule="evenodd" d="M5.97314 111.669L28.8432 123.872L27.9918 125.468L7.78185 114.684V163.623L55.9408 189.235L55.9379 140.38L27.9918 125.468L28.8432 123.872L57.7466 139.295L57.7496 192.245L5.97314 164.709V111.669ZM109.637 164.709L61.914 190.09L61.911 138.137L109.637 112.694V164.709ZM58.7435 135.106L8.71078 108.409L57.8053 82.2993L107.862 108.921L58.7435 135.106ZM107.829 163.623L63.7225 187.08L63.7198 139.223L107.829 115.708V163.623ZM104.014 108.923L57.8053 84.3479L12.5578 108.412L58.7439 133.057L104.014 108.923Z" fill="white"/>
<path d="M92.8469 49.384H64.2364L70.5943 11.2805L22.9102 68.4357H51.5206L45.1627 106.539L92.8469 49.384Z" fill="#05A5FB"/>
<path fill-rule="evenodd" clip-rule="evenodd" d="M75.3959 0.81958L67.7955 46.3696H99.2877L40.361 117L47.9614 71.4503H16.4692L75.3959 0.81958ZM29.3509 65.4213H55.0798L49.9644 96.0782L86.406 52.3986H60.6771L65.7925 21.7417L29.3509 65.4213Z" fill="#05A5FB"/>
<path d="M354.101 179.406L370.201 98.9084H404.239C414.666 98.9084 422.715 101.17 428.389 105.693C434.062 110.216 436.898 116.58 436.898 124.783C436.898 131.529 435.288 137.432 432.068 142.492C428.849 147.552 424.249 151.462 418.269 154.222C412.289 156.982 405.236 158.361 397.11 158.361H371.005L383.08 148.242L376.87 179.406H354.101ZM382.505 150.887L374.57 140.422H398.145C403.128 140.422 406.999 139.234 409.759 136.857C412.519 134.481 413.899 131.107 413.899 126.738C413.899 123.364 412.787 120.873 410.564 119.263C408.341 117.653 405.236 116.848 401.249 116.848H379.4L391.475 106.038L382.505 150.887Z" fill="white"/>
<path d="M315.133 179.406L331.232 98.9084H354.001L337.902 179.406H315.133Z" fill="white"/>
<path d="M292.287 98.9084H315.056L298.957 179.406H276.188L292.287 98.9084ZM245.254 179.406H222.484L238.584 98.9084H261.353L245.254 179.406ZM284.122 148.012H249.968L253.763 129.152H287.917L284.122 148.012Z" fill="white"/>
<path d="M178.043 181.016C173.443 181.016 169.035 180.632 164.819 179.866C160.602 179.176 156.769 178.179 153.319 176.876C149.869 175.496 146.918 174.001 144.464 172.391L153.434 155.372C156.194 157.058 159.031 158.515 161.944 159.741C164.934 160.891 167.962 161.773 171.028 162.386C174.095 163 177.162 163.306 180.228 163.306C183.141 163.306 185.633 163.038 187.703 162.501C189.773 161.888 191.344 161.045 192.418 159.971C193.491 158.898 194.028 157.633 194.028 156.177C194.028 154.567 193.299 153.302 191.843 152.382C190.463 151.385 188.623 150.542 186.323 149.852C184.023 149.162 181.455 148.472 178.618 147.782C175.858 147.015 173.06 146.134 170.223 145.137C167.464 144.064 164.934 142.76 162.634 141.227C160.334 139.617 158.456 137.586 156.999 135.132C155.619 132.679 154.929 129.651 154.929 126.048C154.929 120.221 156.501 115.161 159.644 110.868C162.787 106.575 167.234 103.24 172.983 100.863C178.81 98.4869 185.671 97.2986 193.568 97.2986C199.318 97.2986 204.684 97.9119 209.667 99.1385C214.65 100.288 218.944 101.975 222.547 104.198L214.267 121.103C211.124 119.11 207.636 117.615 203.802 116.618C200.046 115.545 196.174 115.008 192.188 115.008C189.121 115.008 186.476 115.353 184.253 116.043C182.106 116.733 180.458 117.691 179.308 118.918C178.235 120.068 177.698 121.371 177.698 122.828C177.698 124.361 178.388 125.626 179.768 126.623C181.148 127.619 182.988 128.463 185.288 129.153C187.665 129.842 190.233 130.571 192.993 131.337C195.829 132.027 198.628 132.871 201.387 133.867C204.147 134.787 206.716 136.052 209.092 137.662C211.469 139.196 213.347 141.15 214.727 143.527C216.107 145.904 216.797 148.855 216.797 152.382C216.797 158.132 215.225 163.153 212.082 167.446C208.939 171.739 204.454 175.074 198.628 177.451C192.801 179.827 185.94 181.016 178.043 181.016Z" fill="white"/>
<path d="M374.606 77.9386L413.483 17.3289H430.367L445 77.9386H427.943L417.119 25.4679H423.873L392.702 77.9386H374.606ZM391.577 66.163L398.504 53.5215H428.116L430.021 66.163H391.577Z" fill="white"/>
<path d="M317.786 77.9386L329.908 17.3289H355.797C363.59 17.3289 369.593 19.0317 373.807 22.4374C378.078 25.8431 380.214 30.5764 380.214 36.6374C380.214 41.7171 378.973 46.1618 376.491 49.9715C374.067 53.7236 370.603 56.6386 366.101 58.7166C361.598 60.7947 356.288 61.8337 350.169 61.8337H330.514L339.606 54.474L334.93 77.9386H317.786ZM355.797 77.9386L343.415 55.8593H361.165L373.72 77.9386H355.797ZM339.173 56.4654L333.198 48.5862H350.948C354.758 48.5862 357.702 47.6914 359.78 45.902C361.858 44.1126 362.897 41.5727 362.897 38.2825C362.897 35.7427 362.06 33.8667 360.386 32.6545C358.712 31.4423 356.374 30.8362 353.373 30.8362H336.835L346.013 22.6972L339.173 56.4654Z" fill="white"/>
<path d="M275.639 77.9386L285.077 30.9228H266.461L269.232 17.3289H323.521L320.75 30.9228H302.221L292.783 77.9386H275.639Z" fill="white"/>
<path d="M215.642 77.9386L227.764 17.3289H244.908L235.557 64.3447H264.476L261.705 77.9386H215.642Z" fill="white"/>
<path d="M177.1 79.1508C171.039 79.1508 165.959 77.9963 161.861 75.6874C157.82 73.3207 154.963 70.0305 153.289 65.8166C151.615 61.5451 151.326 56.5809 152.423 50.924L159.177 17.3289H176.321L169.654 50.6642C169.192 53.0886 169.048 55.1955 169.221 56.9849C169.394 58.7744 169.885 60.2752 170.693 61.4874C171.559 62.6996 172.684 63.5943 174.069 64.1715C175.513 64.691 177.215 64.9508 179.178 64.9508C181.545 64.9508 183.594 64.489 185.326 63.5654C187.115 62.5841 188.587 61.0545 189.741 58.9764C190.954 56.8406 191.877 54.0699 192.512 50.6642L199.179 17.3289H216.063L209.223 51.7032C207.434 60.7081 203.855 67.5484 198.487 72.224C193.118 76.8418 185.989 79.1508 177.1 79.1508Z" fill="white"/>
</svg>
